<?xml version="1.0" encoding="utf-8"?>
<svg version="1.1" x="0px" y="0px" viewBox="0 0 1000 1000" enable-background="new 0 0 1000 1000" xmlns="http://www.w3.org/2000/svg">
  <g>
    <g>
      <path d="M500,10C229.4,10,10,229.4,10,500c0,270.6,219.4,490,490,490c270.6,0,490-219.4,490-490C990,229.4,770.6,10,500,10z M500,898.1c-219.9,0-398.1-178.2-398.1-398.1S280.1,101.9,500,101.9S898.1,280.1,898.1,500S719.9,898.1,500,898.1z" style="fill: rgb(57, 58, 61);"/>
      <path d="M349.5,686.4l86.6,86.6l273-273l-273-273l-86.6,86.6L535.9,500L349.5,686.4z" style="fill: rgb(57, 58, 61);"/>
    </g>
  </g>
</svg>