<?xml version="1.0" encoding="utf-8"?>
<!-- Generator: Adobe Illustrator 24.1.3, SVG Export Plug-In . SVG Version: 6.00 Build 0)  -->
<svg version="1.1" id="Layer_1" xmlns="http://www.w3.org/2000/svg" xmlns:xlink="http://www.w3.org/1999/xlink" x="0px" y="0px"
	 width="99px" height="25px" viewBox="0 0 99 25" style="enable-background:new 0 0 99 25;" xml:space="preserve">
<style type="text/css">
	.st0{fill:#99DFFF;}
	.st1{fill:#34BFFF;}
</style>
<g>
	<rect x="1" y="1" class="st0" width="97" height="23"/>
	<g>
		<path class="st1" d="M98,23c-32.3,0-64.7,0-97,0c0.3,0.3,0.7,0.7,1,1C2,16.3,2,8.7,2,1C1.7,1.3,1.3,1.7,1,2c32.3,0,64.7,0,97,0
			c-0.3-0.3-0.7-0.7-1-1c0,7.7,0,15.3,0,23c0,1.3,2,1.3,2,0c0-7.7,0-15.3,0-23c0-0.5-0.5-1-1-1C65.7,0,33.3,0,1,0C0.5,0,0,0.5,0,1
			c0,7.7,0,15.3,0,23c0,0.5,0.5,1,1,1c32.3,0,64.7,0,97,0C99.3,25,99.3,23,98,23z"/>
	</g>
</g>
</svg>
