<?xml version="1.0" encoding="utf-8"?>
<!-- Generator: Adobe Illustrator 16.0.0, SVG Export Plug-In . SVG Version: 6.00 Build 0)  -->
<!DOCTYPE svg PUBLIC "-//W3C//DTD SVG 1.1//EN" "http://www.w3.org/Graphics/SVG/1.1/DTD/svg11.dtd">
<svg version="1.1" id="Layer_1" xmlns="http://www.w3.org/2000/svg" xmlns:xlink="http://www.w3.org/1999/xlink" x="0px" y="0px"
	 width="100px" height="26px" viewBox="0 0 100 26" enable-background="new 0 0 100 26" xml:space="preserve">
<g>
	<rect x="1.5" y="1.5" fill="#E4B9BC" width="97" height="23"/>
	<g>
		<path fill="#D6949A" d="M98.5,23.5c-32.333,0-64.667,0-97,0c0.333,0.333,0.667,0.667,1,1c0-7.667,0-15.333,0-23
			c-0.333,0.333-0.667,0.667-1,1c32.333,0,64.667,0,97,0c-0.333-0.333-0.667-0.667-1-1c0,7.667,0,15.333,0,23c0,1.29,2,1.29,2,0
			c0-7.667,0-15.333,0-23c0-0.545-0.455-1-1-1c-32.333,0-64.667,0-97,0c-0.545,0-1,0.455-1,1c0,7.667,0,15.333,0,23
			c0,0.545,0.455,1,1,1c32.333,0,64.667,0,97,0C99.79,25.5,99.79,23.5,98.5,23.5z"/>
	</g>
</g>
</svg>
