<?xml version="1.0" encoding="utf-8"?>
<!-- Generator: Adobe Illustrator 24.1.3, SVG Export Plug-In . SVG Version: 6.00 Build 0)  -->
<svg version="1.1" id="Layer_1" xmlns="http://www.w3.org/2000/svg" xmlns:xlink="http://www.w3.org/1999/xlink" x="0px" y="0px"
	 viewBox="0 0 100 26" style="enable-background:new 0 0 100 26;" xml:space="preserve">
<style type="text/css">
	.st0{fill:#34BFFF;}
	.st1{fill:#0097E6;}
</style>
<g>
	<rect x="1.5" y="1.5" class="st0" width="97" height="23"/>
	<g>
		<path class="st1" d="M98.5,23.5c-32.3,0-64.7,0-97,0c0.3,0.3,0.7,0.7,1,1c0-7.7,0-15.3,0-23c-0.3,0.3-0.7,0.7-1,1
			c32.3,0,64.7,0,97,0c-0.3-0.3-0.7-0.7-1-1c0,7.7,0,15.3,0,23c0,1.3,2,1.3,2,0c0-7.7,0-15.3,0-23c0-0.5-0.5-1-1-1
			c-32.3,0-64.7,0-97,0c-0.5,0-1,0.5-1,1c0,7.7,0,15.3,0,23c0,0.5,0.5,1,1,1c32.3,0,64.7,0,97,0C99.8,25.5,99.8,23.5,98.5,23.5z"/>
	</g>
</g>
</svg>
