<svg xmlns="http://www.w3.org/2000/svg" width="189.2105268252713" height="61.947369100361584" style=""><rect id="backgroundrect" width="100%" height="100%" x="0" y="0" fill="none" stroke="none" class="" style=""/><defs><style>.cls-1{fill:#fff;}.cls-2{fill:none;}</style></defs><title>Intuit_2016_RGB_White</title><g class="currentLayer" style=""><title>Layer 1</title><g id="Logo" class=""><path id="_" data-name="®" class="cls-1" d="M184.0791837501526,52.765120887756325 a0.9400000000000004,0.9400000000000004 0 0 0 -1.11,-0.8800000000000004 h-1 v3 h0.53 v-1.25 h0.3900000000000003 l0.7000000000000004,1.25 h0.6500000000000006 l-0.81,-1.31 A0.79,0.79 0 0 0 184.0791837501526,52.765120887756325 zm-1.62,0.4300000000000002 V52.36512088775635 h0.4900000000000002 a0.4800000000000002,0.4800000000000002 0 0 1 0.5900000000000004,0.4100000000000002 a0.53,0.53 0 0 1 -0.6500000000000006,0.4400000000000002 h-0.4300000000000002 zm0.5,-2.45 A2.64,2.64 0 1 0 185.6491837501526,53.36512088775635 A2.6500000000000004,2.6500000000000004 0 0 0 182.9591837501526,50.74512088775634 zm0,4.8900000000000015 a2.24,2.24 0 1 1 2.24,-2.24 A2.25,2.25 0 0 1 182.9591837501526,55.63512088775633 z"/><path id="Intuit" class="cls-1" d="M3.649183750152588,19.63512088775633 h9 v36 h-9 v-36 zm38.09,-1.05 A12.26,12.26 0 0 0 30.589183750152586,25.365120887756348 h-0.1500000000000001 v-5.77 h-8.55 v36 h9 v-19.8 c0,-4.8 2.7,-9.75 8.4,-9.75 s6.75,5.33 6.75,9.6 v20 h9 v-22.5 C55.039183750152574,25.785120887756364 51.1391837501526,18.585120887756375 41.76918375015259,18.585120887756375 zm77.46,20.85 c0,4.8 -2.7,9.75 -8.4,9.75 s-6.75,-5.32 -6.75,-9.6 v-20 h-9 v22.5 c0,7.35 3.9,14.55 13.28,14.55 a12.25,12.25 0 0 0 11.17,-6.83 H119.64918375015259 v5.78 h8.55 v-36 h-9 v19.8 zm18.21,16.2 h9 v-36 h-9 v36 zm-77.81,-28 h10.09 v28 h9 v-28 h10.09 v-8 H59.64918375015259 v8 zm14.59,-12.67 a5.44,5.44 0 1 0 -5.44,-5.44 A5.44,5.44 0 0 0 74.21918375015258,14.92512088775635 zm78.53,4.69 v8 h10.09 v28 h9 v-28 h10.09 v-8 H152.7491837501526 zm14.59,-4.69 a5.44,5.44 0 1 0 -5.44,-5.44 A5.44,5.44 0 0 0 167.33918375015259,14.92512088775635 z"/></g><rect id="Clearspace" class="cls-2" width="170.1154236653505" height="58.09864887837605" y="135.33834589990167" x="179.69925105523419"/><rect class="cls-2" width="234.77707200441" height="88.92571690882232" y="-130.07518543555236" x="13.909774852274722" id="svg_1"/></g></svg>